<?xml version="1.0" encoding="UTF-8"?>
<svg width="73px" height="88px" viewBox="0 0 73 88" version="1.1" xmlns="http://www.w3.org/2000/svg" xmlns:xlink="http://www.w3.org/1999/xlink">
    <!-- Generator: Sketch 52.5 (67469) - http://www.bohemiancoding.com/sketch -->
    <title>Authorized Financial Icon - Black@2x</title>
    <desc>Created with Sketch.</desc>
    <g id="Hubspot-Templates" stroke="none" stroke-width="1" fill="none" fill-rule="evenodd">
        <g id="Company-Z---Landing-Page" transform="translate(-1184.000000, -597.000000)">
            <g id="Authorized-Financial-Icon---Black" transform="translate(1184.000000, 597.000000)">
                <g id="currency-(1)">
                    <g id="Group-4" fill="#1A2939">
                        <path d="M49.2377307,84.3332187 C40.2536019,84.3332187 32.6299742,78.3652031 30.0836932,70.1657344 C30.0527494,70.0660469 30.0240281,69.9656719 29.994623,69.8656406 C29.9453864,69.6978906 29.8983724,69.5292812 29.8532389,69.3598125 C29.8231499,69.2458594 29.7940867,69.1319062 29.7657073,69.0176094 C29.7426276,68.9234219 29.7186932,68.8295781 29.6968103,68.7347031 C29.6525316,68.5422031 29.6111593,68.3488437 29.5721803,68.1549687 C29.556452,68.0757344 29.5415785,67.9961562 29.5267049,67.9165781 C29.4950773,67.7479687 29.4653302,67.5788437 29.4381475,67.4095469 C29.4295995,67.3564375 29.4201967,67.3038437 29.4121616,67.2509062 C29.3789953,67.0350312 29.350274,66.8186406 29.3242881,66.6017344 C29.3167658,66.5386562 29.3095855,66.4755781 29.3027471,66.4125 C29.2794965,66.2022969 29.2586393,65.9915781 29.2420562,65.7805156 C29.2405176,65.7619531 29.238808,65.7437344 29.2372693,65.7251719 C29.2198314,65.49675 29.2073513,65.2676406 29.1977775,65.0380156 C29.1952131,64.9804375 29.1931616,64.9228594 29.1911101,64.8652812 C29.1830749,64.6330781 29.1777752,64.4003594 29.1777752,64.1672969 C29.1777752,63.8876562 29.1852974,63.6097344 29.1964098,63.3326719 C29.1982904,63.2874687 29.1994871,63.24175 29.2015386,63.1967187 C29.2131639,62.9469844 29.2306019,62.6982812 29.2511171,62.4509531 C29.2576136,62.3730937 29.264281,62.2954062 29.2718033,62.2178906 C29.2924895,61.9982344 29.3171077,61.7794375 29.3446323,61.5620156 C29.3598478,61.4442812 29.3767728,61.3274062 29.3938689,61.2103594 C29.4094262,61.1029375 29.4268642,60.9960312 29.4441311,60.889125 C29.4865293,60.6290781 29.5325176,60.3702344 29.5850023,60.1134531 C29.5855152,60.1103594 29.58637,60.1072656 29.5870539,60.1041719 C31.0904778,52.7439687 36.5952248,46.8342187 43.7061429,44.7804844 C43.735377,44.7722344 43.7640984,44.7636406 43.7931616,44.7553906 C43.9576253,44.7088125 44.1234567,44.6642969 44.2898009,44.6215 C44.4795667,44.5735469 44.6705293,44.5273125 44.8626885,44.4845156 C44.9360304,44.4680156 45.0098852,44.4516875 45.083911,44.4360469 C45.3353934,44.3829375 45.5887564,44.3336094 45.844,44.290125 C46.947377,44.100375 48.081185,44 49.2379016,44 C60.2983419,44 69.2970023,53.0469844 69.2970023,64.1669531 C69.2968314,75.28675 60.298171,84.3332187 49.2377307,84.3332187 Z M26.0546745,69.168 C25.2759508,69.1949844 24.4914145,69.2087344 23.7068782,69.2087344 C18.0412576,69.2087344 12.7389274,68.5232969 8.77709602,67.2785781 C4.58959719,65.9630469 3.64726464,64.55625 3.64726464,64.167125 L3.64726464,59.8377656 C4.69183138,60.4341719 6.01472131,61.0094375 7.68910539,61.535375 C11.993541,62.8876875 17.6822412,63.6325938 23.7068782,63.6325938 C24.3170351,63.6325938 24.9280468,63.624 25.537178,63.6083594 C25.5330749,63.7946719 25.5305105,63.9808125 25.5305105,64.1674688 C25.5305105,64.3759531 25.5334169,64.58375 25.5387166,64.7910313 C25.5402553,64.8556563 25.5435035,64.9202813 25.545897,64.9850781 C25.5506838,65.1277344 25.5554707,65.2705625 25.5626511,65.4123594 C25.5667541,65.4907344 25.5727377,65.5687656 25.5775246,65.6467969 C25.5853888,65.7745 25.59274,65.9027188 25.6024848,66.0299063 C25.6091522,66.1161875 25.6178712,66.2022969 25.6253934,66.2882344 C25.635993,66.4068281 25.6459087,66.5255938 25.6580468,66.6436719 C25.6677916,66.7368281 25.6792459,66.8298125 25.6900164,66.922625 C25.7026674,67.0324531 25.7148056,67.1424531 25.7288244,67.2517656 C25.7418173,67.3531719 25.7566909,67.4544063 25.7712225,67.5554688 C25.7852412,67.6546406 25.798918,67.7541563 25.8141335,67.8529844 C25.8315714,67.9636719 25.850377,68.0740156 25.8690117,68.1843594 C25.8838852,68.2720156 25.8984169,68.3598438 25.9141452,68.4473281 C25.9360281,68.5681563 25.9597916,68.6886406 25.9833841,68.8092969 C25.9980867,68.8837188 26.0124473,68.9583125 26.0276628,69.0323906 C26.0368946,69.07725 26.0451007,69.1227969 26.0546745,69.168 Z M8.77709602,5.59676562 C12.7390984,4.35221875 18.0410867,3.66660937 23.7068782,3.66660937 C29.3723279,3.66660937 34.6746581,4.35221875 38.6366604,5.59676562 C42.8238173,6.91246875 43.7661499,8.3194375 43.7661499,8.70839062 C43.7661499,9.0976875 42.8238173,10.5044844 38.6366604,11.8201875 C34.6746581,13.0645625 29.3724988,13.7501719 23.7068782,13.7501719 C18.0410867,13.7501719 12.7389274,13.0645625 8.77709602,11.8200156 C4.58959719,10.5044844 3.64726464,9.0976875 3.64726464,8.70839062 C3.64726464,8.3194375 4.58959719,6.91246875 8.77709602,5.59676562 Z M3.64726464,41.3515781 C4.69183138,41.9479844 6.01472131,42.52325 7.68910539,43.0491875 C11.993541,44.4013281 17.6820703,45.1462344 23.7068782,45.1462344 C28.5077822,45.1462344 33.0927635,44.6718594 36.9362904,43.7956406 C34.7956979,45.1034375 32.8554707,46.7529219 31.2041663,48.6961406 C30.7271874,49.2576562 30.2789297,49.839625 29.8583677,50.4392969 C27.8752295,50.6269844 25.8057564,50.7227187 23.7068782,50.7227187 C21.0773396,50.7227187 18.5103724,50.573875 16.0767541,50.2806562 C15.0773208,50.16 14.1690094,50.8772344 14.0491663,51.8827031 C13.9293232,52.8878281 14.64274,53.8006562 15.6425152,53.9211406 C18.21974,54.2317187 20.9328782,54.3893281 23.7068782,54.3893281 C25.0436159,54.3893281 26.3671897,54.3479062 27.6702482,54.2752031 C27.6567424,54.3049375 27.6428946,54.3345 27.6293888,54.3642344 C27.6287049,54.366125 27.6276792,54.3675 27.6269953,54.3693906 C27.5628852,54.5125625 27.5004848,54.65625 27.4389391,54.8007969 C27.4215012,54.841875 27.4033794,54.8826094 27.3862834,54.9238594 C27.357904,54.9914062 27.3308923,55.0596406 27.3031967,55.1277031 C26.6778244,56.6556719 26.2049485,58.2621875 25.9061101,59.9288594 C25.1755972,59.9525781 24.4404684,59.9658125 23.7067073,59.9658125 C18.0409157,59.9658125 12.7387564,59.280375 8.77692506,58.0358281 C4.58942623,56.720125 3.64692272,55.3131562 3.64692272,54.9242031 L3.64692272,41.3515781 L3.64726464,41.3515781 Z M35.4371405,33.034375 C35.2786604,32.0342344 34.3414567,31.3532656 33.3492037,31.51225 C30.3909087,31.9861094 27.0566721,32.2365313 23.7068782,32.2365313 C18.0412576,32.2365313 12.7389274,31.5510938 8.77709602,30.306375 C4.58959719,28.9906719 3.64726464,27.5840469 3.64726464,27.1949219 L3.64726464,13.622125 C4.69183138,14.2187031 6.01472131,14.7937969 7.68910539,15.3197344 C11.9937119,16.6720469 17.6822412,17.4167813 23.7068782,17.4167813 C29.7315152,17.4167813 35.4200445,16.671875 39.7243091,15.3197344 C41.3988642,14.7937969 42.7214122,14.2187031 43.7661499,13.622125 L43.7661499,17.9518281 C43.7661499,18.3407813 42.8238173,19.74775 38.6366604,21.0632813 C34.6744871,22.3078281 29.3724988,22.9932656 23.7068782,22.9932656 C21.0773396,22.9932656 18.5103724,22.8444219 16.0767541,22.5512031 C15.0773208,22.4296875 14.1690094,23.148125 14.0491663,24.15325 C13.9293232,25.1585469 14.64274,26.071375 15.6425152,26.1916875 C18.21974,26.5022656 20.9328782,26.6600469 23.7068782,26.6600469 C29.7315152,26.6600469 35.4200445,25.9151406 39.7243091,24.563 C41.3988642,24.0370625 42.7214122,23.4619688 43.7661499,22.8655625 L43.7661499,36.4376719 C43.7661499,36.8267969 42.8238173,38.2337656 38.6366604,39.5492969 C34.6746581,40.7940156 29.3724988,41.4792813 23.7068782,41.4792813 C18.0410867,41.4792813 12.7387564,40.7940156 8.77709602,39.5492969 C4.58959719,38.2337656 3.64726464,36.8267969 3.64726464,36.4376719 L3.64726464,32.1084844 C4.69183138,32.7048906 6.01472131,33.2801563 7.68910539,33.8062656 C11.9937119,35.1584063 17.6822412,35.9031406 23.7068782,35.9031406 C27.2960164,35.9031406 30.733171,35.644125 33.9229461,35.1331406 C34.9177635,34.9739844 35.5956206,34.0343438 35.4371405,33.034375 Z M49.2377307,40.3335625 C48.6239836,40.3335625 48.0153653,40.3571094 47.4134145,40.4033437 L47.4134145,8.70839062 C47.4134145,6.79439063 46.0792412,4.09371875 39.7243091,2.09704687 C35.4200445,0.74490625 29.7315152,0 23.7068782,0 C17.6822412,0 11.9937119,0.74490625 7.68910539,2.09704687 C1.3341733,4.09371875 0,6.79439063 0,8.70839062 L0,64.167125 C0,66.0809531 1.33400234,68.7817969 7.68910539,70.7782969 C11.9937119,72.1306094 17.6822412,72.8753437 23.7068782,72.8753437 C24.8552178,72.8753437 26.0035574,72.8464687 27.1371944,72.7914687 C30.5823841,81.6823906 39.1893747,88 49.2375597,88 C62.3093466,88 72.9437541,77.3086875 72.9437541,64.167125 C72.9439251,51.0252187 62.3095176,40.3335625 49.2377307,40.3335625 Z" id="Fill-3"></path>
                    </g>
                    <path d="M10.7458922,21.2658552 C10.5085361,21.2003813 10.2756152,21.1327781 10.047894,21.0632231 C9.1758552,20.7961816 8.28393473,21.3996421 8.05437838,22.4103187 C7.82451616,23.4211727 8.34449723,24.4566904 9.21577139,24.7231995 C9.46857395,24.8005617 9.727341,24.8757947 9.99069612,24.9483661 C10.1176327,24.9836759 10.2447222,25 10.3696706,25 C11.1077378,25 11.776984,24.414638 11.9553069,23.5450232 C12.1639111,22.5283138 11.6223661,21.5077008 10.7458922,21.2658552" id="Fill-5" fill="#ED2853"></path>
                    <path d="M38.9574506,34 C39.1424439,34 39.3311077,33.9750204 39.5172022,33.9229941 C39.902238,33.8153236 40.2902101,33.699384 40.6704742,33.5784486 C41.6941774,33.2526808 42.2429175,32.2092246 41.8958715,31.2479426 C41.5488255,30.2870052 40.4372137,29.7720819 39.413327,30.0976774 C39.0791277,30.204142 38.738138,30.3061275 38.3991671,30.4005329 C37.3629842,30.6902957 36.7733179,31.7135959 37.0820072,32.6862479 C37.3356389,33.4843876 38.113969,34 38.9574506,34" id="Fill-6" fill="#ED2853"></path>
                    <path d="M9.21766335,52.7243824 C9.47046928,52.8012288 9.72862803,52.8759455 9.99183372,52.9485325 C10.1184661,52.9833174 10.2450985,53 10.3697426,53 C11.1082785,53 11.7776866,52.4139799 11.9555531,51.5436459 C12.1635483,50.5263632 11.6216902,49.505886 10.7450516,49.2646984 C10.5073865,49.1992104 10.2738507,49.1317701 10.0458207,49.0622002 C9.17545256,48.797586 8.28244965,49.4015311 8.05380787,50.4129571 C7.82516609,51.4240282 8.34622465,52.4588809 9.21766335,52.7243824" id="Fill-7" fill="#ED2853"></path>
                </g>
            </g>
        </g>
    </g>
</svg>