<?xml version="1.0" encoding="UTF-8"?>
<svg width="83px" height="83px" viewBox="0 0 83 83" version="1.1" xmlns="http://www.w3.org/2000/svg" xmlns:xlink="http://www.w3.org/1999/xlink">
    <!-- Generator: Sketch 52.5 (67469) - http://www.bohemiancoding.com/sketch -->
    <title>Forex Icon - Black@2x</title>
    <desc>Created with Sketch.</desc>
    <defs>
        <polygon id="path-1" points="0.00980314961 82.8369352 83 82.8369352 83 0.00652259332 0.00980314961 0.00652259332"></polygon>
    </defs>
    <g id="Hubspot-Templates" stroke="none" stroke-width="1" fill="none" fill-rule="evenodd">
        <g id="Company-Z---Landing-Page" transform="translate(-979.000000, -600.000000)">
            <g id="Forex-Icon---Black" transform="translate(979.000000, 600.000000)">
                <g id="whiteboard">
                    <g id="Group-3">
                        <mask id="mask-2" fill="white">
                            <use xlink:href="#path-1"></use>
                        </mask>
                        <g id="Clip-2"></g>
                        <path d="M78.3108268,6.68565815 L4.68917323,6.68565815 C3.57814961,6.68565815 2.67952756,5.78880157 2.67952756,4.67996071 C2.67952756,3.57111984 3.57814961,2.67426326 4.68917323,2.67426326 L78.3108268,2.67426326 C79.4218504,2.67426326 80.3204724,3.57111984 80.3204724,4.67996071 C80.3204724,5.78880157 79.4218504,6.68565815 78.3108268,6.68565815 Z M77.6409449,54.7734774 L5.35905512,54.7734774 L5.35905512,9.35992141 L77.6572835,9.35992141 L77.6572835,54.7734774 L77.6409449,54.7734774 Z M65.0112205,80.1626719 L62.5114173,80.1626719 L54.1297244,57.4477407 L56.6295276,57.4477407 L65.0112205,80.1626719 Z M27.9716535,69.4819253 L31.7785433,57.4640472 L51.286811,57.4640472 L55.7309055,69.4819253 L27.9716535,69.4819253 Z M21.7793307,80.1626719 L19.2305118,80.1626719 L26.4194882,57.4477407 L28.9683071,57.4477407 L21.7793307,80.1626719 Z M83,4.67996071 C83,2.10353635 80.8923228,0 78.3108268,0 L4.68917323,0 C2.10767717,0 0,2.10353635 0,4.67996071 C0,6.5388998 1.09468504,8.13693517 2.67952756,8.8870334 L2.67952756,57.4477407 L23.609252,57.4477407 L15.5706693,82.8369352 L23.7399606,82.8369352 L27.1220472,72.1561886 L56.6948819,72.1561886 L60.6488189,82.8369352 L68.8507874,82.8369352 L59.4724409,57.4477407 L80.3041339,57.4477407 L80.3041339,8.8870334 C81.905315,8.13693517 83,6.5388998 83,4.67996071 Z" id="Fill-1" fill="#1A2939" mask="url(#mask-2)"></path>
                    </g>
                    <path d="M20.1483516,18.7692308 L20.1483516,30.8351648 L32.2142857,30.8351648 C31.5549451,36.1593407 26.989011,40.2967033 21.5,40.2967033 C15.5494505,40.2967033 10.7032967,35.4505495 10.7032967,29.5 C10.6868132,23.9945055 14.8241758,19.4450549 20.1483516,18.7692308 Z M21.5,43 C28.9505495,43 35,36.9340659 35,29.5 L35,28.1483516 L22.8516484,28.1483516 L22.8516484,16 L21.5,16 C14.0494505,16 8,22.0659341 8,29.5 C8,36.9340659 14.0494505,43 21.5,43 Z" id="Fill-4" fill="#1A2939"></path>
                    <path d="M26.5482797,24.4517203 L26.5482797,15.6104329 C31.1476138,16.1853496 34.7991121,19.8368479 35.3740289,24.436182 L26.5482797,24.436182 L26.5482797,24.4517203 Z M38,25.7258602 C38,18.7025527 32.281909,13 25.2741398,13 L24,13 L24,27 L38,27 L38,25.7258602 Z" id="Fill-5" fill="#ED2853"></path>
                    <path d="M37.6666667,49.3306205 L40.3333333,49.3306205 L40.3333333,38.6693795 L37.6666667,38.6693795 L37.6666667,49.3306205 Z M35,52 L43,52 L43,36 L35,36 L35,52 Z" id="Fill-6" fill="#ED2853"></path>
                    <path d="M47.6829268,49.3729977 L50.3495935,49.3729977 L50.3495935,33.6270023 L47.6829268,33.6270023 L47.6829268,49.3729977 Z M45,52 L53,52 L53,31 L45,31 L45,52 Z" id="Fill-7" fill="#ED2853"></path>
                    <path d="M58.6666667,49.3317838 L61.3333333,49.3317838 L61.3333333,26.6682162 L58.6666667,26.6682162 L58.6666667,49.3317838 Z M56,52 L64,52 L64,24 L56,24 L56,52 Z" id="Fill-8" fill="#ED2853"></path>
                    <path d="M69.6829268,49.3215962 L72.3495935,49.3215962 L72.3495935,19.6948357 L69.6829268,19.6948357 L69.6829268,49.3215962 Z M67,52 L75,52 L75,17 L67,17 L67,52 Z" id="Fill-9" fill="#ED2853"></path>
                </g>
            </g>
        </g>
    </g>
</svg>