<?xml version="1.0" encoding="UTF-8"?>
<svg width="82px" height="83px" viewBox="0 0 82 83" version="1.1" xmlns="http://www.w3.org/2000/svg" xmlns:xlink="http://www.w3.org/1999/xlink">
    <!-- Generator: Sketch 52.5 (67469) - http://www.bohemiancoding.com/sketch -->
    <title>Lowest Cost Icon - Black@2x</title>
    <desc>Created with Sketch.</desc>
    <defs>
        <polygon id="path-1" points="81.9389084 41.5754331 81.9389084 82.9902161 0.00980079681 82.9902161 0.00980079681 0.160650023 81.9389084 0.160650023 81.9389084 41.5754331"></polygon>
    </defs>
    <g id="Hubspot-Templates" stroke="none" stroke-width="1" fill="none" fill-rule="evenodd">
        <g id="Company-Z---Landing-Page" transform="translate(-579.000000, -600.000000)">
            <g id="Lowest-Cost-Icon---Black" transform="translate(579.000000, 600.000000)">
                <g id="label">
                    <g id="Group-3">
                        <mask id="mask-2" fill="white">
                            <use xlink:href="#path-1"></use>
                        </mask>
                        <g id="Clip-2"></g>
                        <path d="M22.2193865,24.932613 C23.3464781,24.4108055 24.1305418,23.4324165 24.2938884,23.2204322 C24.2122151,23.7748527 23.9508606,24.2966601 23.542494,24.7043222 C22.480741,25.7642436 20.7656016,25.7642436 19.7038486,24.7043222 C18.6420956,23.6444008 18.6094263,21.8996071 19.7038486,20.8886051 C20.9779522,19.7145383 22.3500637,20.1711198 22.6930916,20.3341847 C22.5460797,20.986444 22.2847251,21.7691552 21.0269562,22.5192534 L22.2193865,24.932613 Z M14.3624143,38.4669941 L14.3624143,15.5237721 L22.1050438,15.5237721 C22.3663984,16.2086444 22.5460797,16.8609037 22.6604223,17.4805501 C20.9452829,17.1381139 19.0994661,17.6436149 17.7763586,18.9644401 C15.6691873,21.0679764 15.6853586,24.4923379 17.7763586,26.6121807 C20.455243,29.319057 24.3102231,27.9982318 25.4373147,26.6121807 C26.1723745,25.6990177 28.5245657,22.7964637 25.5026534,19.0459725 C25.5026534,17.9371316 25.3066375,16.7630648 24.9146056,15.5400786 L37.3126135,15.5400786 L78.0839283,56.2410609 L55.1337291,79.1842829 L14.3624143,38.4669941 Z M3.67954582,3.78310413 C5.83572112,1.63064833 14.7871155,2.96777996 20.7656016,12.8332024 L11.6508606,12.8332024 L11.6508606,20.1058939 C5.29667729,16.0781925 0.641298805,6.8324165 3.67954582,3.78310413 Z M38.4560398,12.8332024 L23.8365179,12.8332024 C16.2082311,-0.391355599 5.36201594,-1.71218075 1.76839044,1.87524558 C-3.14834263,6.78349705 2.84647809,18.1980354 11.6508606,23.3019646 L11.6508606,39.5921415 L55.1337291,83 L81.9389084,56.2410609 L38.4560398,12.8332024 Z" id="Fill-1" fill="#1A2939" mask="url(#mask-2)"></path>
                    </g>
                    <polyline id="Fill-4" fill="#ED2853" points="35.5022368 19 33.5830599 20.9191769 69.1616463 56.4977632 55.4977632 70.1616463 19.9191769 34.5830599 18 36.5022368 55.4977632 74 73 56.4977632 35.5022368 19"></polyline>
                </g>
            </g>
        </g>
    </g>
</svg>