<?xml version="1.0" encoding="UTF-8"?>
<svg width="84px" height="78px" viewBox="0 0 84 78" version="1.1" xmlns="http://www.w3.org/2000/svg" xmlns:xlink="http://www.w3.org/1999/xlink">
    <!-- Generator: Sketch 52.5 (67469) - http://www.bohemiancoding.com/sketch -->
    <title>No Monthly Fees Icon - Black@2x</title>
    <desc>Created with Sketch.</desc>
    <defs>
        <polygon id="path-1" points="32.571 0.0222222222 0.152307692 0.0222222222 0.152307692 65.4495556 64.9896923 65.4495556 64.9896923 0.0222222222"></polygon>
    </defs>
    <g id="Hubspot-Templates" stroke="none" stroke-width="1" fill="none" fill-rule="evenodd">
        <g id="Company-Z---Landing-Page" transform="translate(-180.000000, -603.000000)">
            <g id="No-Monthly-Fees-Icon---Black" transform="translate(185.000000, 606.000000)">
                <g id="Group-6">
                    <g id="No-Monthly-Fee-Icon---Black" transform="translate(4.000000, 0.000000)">
                        <g id="small-calendar">
                            <g id="Group-3">
                                <mask id="mask-2" fill="white">
                                    <use xlink:href="#path-1"></use>
                                </mask>
                                <g id="Clip-2"></g>
                                <path d="M59.5751538,6.15044444 L50.7692308,6.15044444 L50.7692308,2.06922222 C50.7692308,0.939666667 49.8579231,0.0222222222 48.7359231,0.0222222222 C47.6164615,0.0222222222 46.7026154,0.939666667 46.7026154,2.06922222 L46.7026154,6.15044444 L34.5281538,6.15044444 L34.5281538,2.06922222 C34.5281538,0.939666667 33.6143077,0.0222222222 32.4948462,0.0222222222 C31.3728462,0.0222222222 30.4615385,0.939666667 30.4615385,2.06922222 L30.4615385,6.15044444 L18.2743846,6.15044444 L18.2743846,2.06922222 C18.2743846,0.939666667 17.3630769,0.0222222222 16.2410769,0.0222222222 C15.1216154,0.0222222222 14.2204615,0.939666667 14.2204615,2.06922222 L14.2204615,6.15044444 L5.41453846,6.15044444 C2.42930769,6.15044444 0,8.59611111 0,11.6014444 L0,59.9883333 C0,63.0038889 2.42930769,65.4495556 5.41453846,65.4495556 L59.5751538,65.4495556 C62.5603846,65.4495556 64.9896923,63.0038889 64.9896923,59.9883333 L64.9896923,11.6014444 C64.9896923,8.59611111 62.5603846,6.15044444 59.5751538,6.15044444 Z M60.9230769,59.9883333 C60.9230769,60.7473333 60.3189231,61.3555556 59.5751538,61.3555556 L5.41453846,61.3555556 C4.67076923,61.3555556 4.06661538,60.7473333 4.06661538,59.9883333 L4.06661538,11.6014444 C4.06661538,10.8526667 4.67076923,10.2444444 5.41453846,10.2444444 L14.2204615,10.2444444 L14.2204615,14.3384444 C14.2204615,15.4654444 15.1216154,16.3726667 16.2410769,16.3726667 C17.3630769,16.3726667 18.2743846,15.4654444 18.2743846,14.3384444 L18.2743846,10.2444444 L30.4615385,10.2444444 L30.4615385,14.3384444 C30.4615385,15.4654444 31.3728462,16.3726667 32.4948462,16.3726667 C33.6143077,16.3726667 34.5281538,15.4654444 34.5281538,14.3384444 L34.5281538,10.2444444 L46.7026154,10.2444444 L46.7026154,14.3384444 C46.7026154,15.4654444 47.6164615,16.3726667 48.7359231,16.3726667 C49.8579231,16.3726667 50.7692308,15.4654444 50.7692308,14.3384444 L50.7692308,10.2444444 L59.5751538,10.2444444 C60.3189231,10.2444444 60.9230769,10.8526667 60.9230769,11.6014444 L60.9230769,59.9883333 Z" id="Fill-1" fill="#1A2939" mask="url(#mask-2)"></path>
                            </g>
                            <polygon id="Fill-4" fill="#1A2939" points="14 31 22 31 22 26 14 26"></polygon>
                            <polygon id="Fill-5" fill="#1A2939" points="14 40 22 40 22 35 14 35"></polygon>
                            <polygon id="Fill-6" fill="#1A2939" points="14 49 22 49 22 44 14 44"></polygon>
                            <polygon id="Fill-7" fill="#1A2939" points="28 49 36 49 36 44 28 44"></polygon>
                            <polygon id="Fill-8" fill="#1A2939" points="28 40 36 40 36 35 28 35"></polygon>
                            <polygon id="Fill-9" fill="#1A2939" points="28 31 36 31 36 26 28 26"></polygon>
                            <polygon id="Fill-10" fill="#1A2939" points="43 49 51 49 51 44 43 44"></polygon>
                            <polygon id="Fill-11" fill="#1A2939" points="43 40 51 40 51 35 43 35"></polygon>
                            <polygon id="Fill-12" fill="#1A2939" points="43 31 51 31 51 26 43 26"></polygon>
                        </g>
                    </g>
                    <path d="M74,2 L0,70" id="Line-2" stroke="#ED2853" stroke-width="6" stroke-linecap="square"></path>
                </g>
            </g>
        </g>
    </g>
</svg>