<?xml version="1.0" encoding="UTF-8"?>
<svg width="70px" height="88px" viewBox="0 0 70 88" version="1.1" xmlns="http://www.w3.org/2000/svg" xmlns:xlink="http://www.w3.org/1999/xlink">
    <!-- Generator: Sketch 52.5 (67469) - http://www.bohemiancoding.com/sketch -->
    <title>#1 Online Brocker Icon - Black@2x</title>
    <desc>Created with Sketch.</desc>
    <defs>
        <polygon id="path-1" points="0.00995260664 34.9794118 0.00995260664 0.104313725 69.9774408 0.104313725 69.9774408 34.9794118"></polygon>
    </defs>
    <g id="Hubspot-Templates" stroke="none" stroke-width="1" fill="none" fill-rule="evenodd">
        <g id="Company-Z---Landing-Page" transform="translate(-393.000000, -597.000000)">
            <g id="#1-Online-Brocker-Icon---Black" transform="translate(393.000000, 597.000000)">
                <g id="Group-7">
                    <g id="trophy">
                        <g id="Group-4" transform="translate(0.000000, 4.000000)">
                            <mask id="mask-2" fill="white">
                                <use xlink:href="#path-1"></use>
                            </mask>
                            <g id="Clip-2"></g>
                            <path d="M50.0563033,34.9794118 L49.3118483,32.3441176 C54.6106161,30.7423529 67.3207583,22.2339216 67.3207583,10.6894118 C67.3207583,5.76058824 62.9455924,1.81176471 57.9281517,3.0854902 L57.2951659,0.421372549 C58.1179147,0.211372549 58.9419905,0.104313725 59.7421801,0.104313725 C65.3859716,0.104313725 69.9774408,4.85196078 69.9774408,10.6894118 C69.9761137,23.4390196 56.7869194,32.9439216 50.0563033,34.9794118" id="Fill-1" fill="#1A2939" mask="url(#mask-2)"></path>
                            <path d="M19.9184834,34.9794118 C13.1905213,32.9452941 0,23.4403922 0,10.6894118 C0,4.02568627 6.04056872,-1.26686275 12.6809479,0.421372549 L12.0453081,3.08686275 C7.02654028,1.80627451 2.65270142,5.76058824 2.65270142,10.6894118 C2.65270142,22.2339216 15.3628436,30.7409804 20.6629384,32.3441176 L19.9184834,34.9794118" id="Fill-3" fill="#1A2939" mask="url(#mask-2)"></path>
                        </g>
                        <path d="M31.9095792,52.4158758 L31.9095792,54.3534081 C34.2401522,54.084038 36.7598478,54.0852459 39.0904208,54.3522002 L39.0904208,52.4146678 L31.9095792,52.4146678 L31.9095792,52.4158758 Z M30.4547896,57 C30.1245524,57 29.8015891,56.9069888 29.5411817,56.7318378 C29.1993062,56.5023296 29,56.1556514 29,55.7920621 L29,51.2079379 C29,50.5399482 29.6517457,50 30.4547896,50 L40.5452104,50 C41.349709,50 42,50.5399482 42,51.2079379 L42,55.7920621 C42,56.1580673 41.8006938,56.5023296 41.4588183,56.7318378 C41.1169427,56.9601381 40.6688675,57.0471096 40.2382498,56.9722174 C37.242838,56.4346851 33.7586168,56.4346851 30.7617502,56.9722174 C30.659915,56.9903365 30.5566249,57 30.4547896,57 Z" id="Fill-5" fill="#1A2939"></path>
                        <path d="M17.6902118,85.5412715 L51.3097882,85.5412715 L51.3097882,83.4587285 L17.6902118,83.4587285 L17.6902118,85.5412715 Z M52.6548941,88 L16.3451059,88 C15.6026074,88 15,87.4504742 15,86.7706358 L15,82.2293642 C15,81.5495258 15.6026074,81 16.3451059,81 L52.6548941,81 C53.3987377,81 54,81.5495258 54,82.2293642 L54,86.7706358 C54,87.4504742 53.3987377,88 52.6548941,88 Z" id="Fill-6" fill="#1A2939"></path>
                        <path d="M20.6633245,81.2652123 L49.3366755,81.2652123 L49.3366755,64.7347877 L20.6633245,64.7347877 L20.6633245,81.2652123 Z M50.6683378,84 L19.3316622,84 C18.5965847,84 18,83.3887749 18,82.6326061 L18,63.3673939 C18,62.6112251 18.5965847,62 19.3316622,62 L50.6683378,62 C51.404747,62 52,62.6112251 52,63.3673939 L52,82.6326061 C52,83.3874075 51.4034153,84 50.6683378,84 Z" id="Fill-7" fill="#1A2939"></path>
                        <path d="M26.5095534,75.0330078 L43.4904466,75.0330078 L43.4904466,68.9669922 L26.5095534,68.9669922 L26.5095534,75.0330078 Z M44.7452233,78 L25.2547767,78 C24.56214,78 24,77.3368772 24,76.5165039 L24,67.4834961 C24,66.6631228 24.56214,66 25.2547767,66 L44.7452233,66 C45.4391148,66 46,66.6631228 46,67.4834961 L46,76.5165039 C46,77.3353937 45.43786,78 44.7452233,78 Z" id="Fill-8" fill="#1A2939"></path>
                        <path d="M29.0908703,45.1625616 C29.5162099,45.1625616 30.4092907,45.1639363 30.4066406,45.1625616 L40.9142523,45.1625616 C43.6478214,43.4359033 46.2740618,40.436247 48.5345897,36.4536602 C49.0725582,35.5037232 49.590651,34.4987971 50.0729676,33.4705006 C53.4041323,26.3631573 55.5016795,17.4123038 56.1377014,7.58437393 C56.1907032,6.77328445 56.2331047,5.95944553 56.2675559,5.1359835 C56.2980319,4.34276549 56.329833,3.55092221 56.3430835,2.74945584 L13.659389,2.74945584 C13.6726395,3.50830565 13.7031155,4.26028182 13.7322665,5.01225799 C13.7693678,5.95944553 13.8144194,6.77465918 13.8660961,7.58437393 C14.5047681,17.4150533 16.6009903,26.3659067 19.9308299,33.4705006 C20.4118215,34.4974224 20.9299143,35.499599 21.4705329,36.4522855 C23.7297357,40.436247 26.3559761,43.4345286 29.0908703,45.1625616 Z M41.1289097,48 C40.9712293,48 40.8135488,47.9711307 40.6638187,47.9133921 L30.4053155,47.9133921 C30.0157521,47.9133921 29.6685902,47.9133921 29.3611796,47.9023943 C28.995467,48.0536144 28.5780776,48.0274946 28.2269405,47.8240348 C24.8812003,45.8815443 21.8402207,42.5258334 19.1848292,37.8476343 C18.6084344,36.8330851 18.0558904,35.7635468 17.5444228,34.6720128 C14.0675031,27.2526063 11.8811778,17.9498224 11.21998,7.76858747 C11.1656532,6.93412762 11.1192766,6.09554359 11.0861504,5.24871119 C11.045074,4.19979379 11.0092978,3.27872609 11.0000225,2.34253637 C10.9973724,1.7184099 11.2292554,1.13140108 11.65327,0.687363959 C12.0772846,0.244701569 12.641754,0 13.2406746,0 L56.764448,0 C57.3660187,0 57.9304881,0.246076297 58.3545027,0.691488143 C58.7785173,1.13689999 59.0077502,1.72528354 58.9997999,2.34941001 C58.9905246,3.32271738 58.9534233,4.28502692 58.914997,5.24596174 C58.8818709,6.09966777 58.8354943,6.93550235 58.7824925,7.76996219 C58.1226197,17.947073 55.9362945,27.2512315 52.4567247,34.6747623 C51.942607,35.767671 51.391388,36.8358346 50.8189683,37.8490091 C48.1635769,42.5272082 45.1212721,45.8842937 41.776857,47.8254096 C41.574125,47.9422614 41.3515174,48 41.1289097,48 Z" id="Fill-9" fill="#1A2939"></path>
                        <path d="M40.4993999,41 L39,38.7455048 C40.7139692,37.439834 42.4305235,35.2793914 43.962238,32.4965422 C44.4055951,31.6887967 44.8269781,30.8450899 45.2147539,29.9930844 C47.9860585,23.8962656 49.8086049,15.8188105 50.3476133,7.24896266 C50.3734651,6.84370678 50.3967316,6.43430152 50.417413,6 L53,6.14384509 C52.9767335,6.59059474 52.9534669,7.00968188 52.9276152,7.43153527 C52.3653402,16.351314 50.4523128,24.7925311 47.5401163,31.2033195 C47.1239036,32.120332 46.6689133,33.0276625 46.1906564,33.9004149 C44.4741021,37.0152144 42.5080787,39.4702628 40.4993999,41" id="Fill-10" fill="#1A2939"></path>
                        <path d="M30.9495665,51.1755845 L39.0491284,51.1755845 C39.2187937,50.7137926 39.3858488,49.9427271 39.3897641,49.6532245 C39.3858488,49.3128825 39.1979118,48.3695277 39.0099748,47.8244155 L30.9887201,47.8244155 C30.8020882,48.3695277 30.6128461,49.3128825 30.6089307,49.656049 C30.6141512,49.9427271 30.7799012,50.7123804 30.9495665,51.1755845 Z M39.5855318,54 L30.4731985,54 C28.2558031,54 28,49.6984152 28,49.6546367 C28,49.6080339 28.2179547,45 30.4144682,45 L39.5254964,45 C41.7820453,45 42,49.6080339 42,49.6546367 C42,49.6984152 41.7441969,54 39.5855318,54 Z" id="Fill-11" fill="#1A2939"></path>
                        <path d="M25.6200669,60.4783863 L42.3799331,60.4783863 C41.5531773,59.8921112 40.1966555,59.3171832 38.3558528,58.9414628 C35.6040134,58.3804038 32.4,58.3804038 29.6428094,58.9414628 C27.8033445,59.3171832 26.4468227,59.8921112 25.6200669,60.4783863 Z M44.6622074,63 L23.3377926,63 C22.5993311,63 22,62.4364193 22,61.7391932 C22,59.3487034 24.6461538,57.380584 29.0782609,56.4765855 C32.2046823,55.839878 35.7966555,55.8423996 38.9217391,56.4765855 C43.3538462,57.380584 46,59.3474426 46,61.7391932 C46,62.4364193 45.4006689,63 44.6622074,63 Z" id="Fill-12" fill="#1A2939"></path>
                    </g>
                    <text id="1" font-family="Lato" font-size="30" font-weight="bold" line-spacing="19" letter-spacing="2" fill="#ED2853">
                        <tspan x="26" y="30">1</tspan>
                    </text>
                </g>
            </g>
        </g>
    </g>
</svg>