<?xml version="1.0" encoding="UTF-8"?>
<svg width="77px" height="86px" viewBox="0 0 77 86" version="1.1" xmlns="http://www.w3.org/2000/svg" xmlns:xlink="http://www.w3.org/1999/xlink">
    <!-- Generator: Sketch 52.5 (67469) - http://www.bohemiancoding.com/sketch -->
    <title>Pioneers of CDF Icon - Black@2x</title>
    <desc>Created with Sketch.</desc>
    <defs>
        <polygon id="path-1" points="38.466778 63 0 63 0 0 38.466778 0 76.933556 0 76.933556 63"></polygon>
        <polygon id="path-3" points="38.466778 23 0 23 0 0 38.466778 0 76.933556 0 76.933556 23"></polygon>
    </defs>
    <g id="Hubspot-Templates" stroke="none" stroke-width="1" fill="none" fill-rule="evenodd">
        <g id="Company-Z---Landing-Page" transform="translate(-783.000000, -598.000000)">
            <g id="Pioneers-of-CDF-Icon---Black" transform="translate(783.000000, 598.000000)">
                <g id="Group-8">
                    <g id="goal-(2)" transform="translate(0.000000, 23.000000)">
                        <g id="Group-3">
                            <mask id="mask-2" fill="white">
                                <use xlink:href="#path-1"></use>
                            </mask>
                            <g id="Clip-2"></g>
                            <path d="M4.66457895,59.640625 L7.09463816,55.5950977 L51.8743596,55.5950977 C52.8069715,55.5950977 53.5629561,54.8429336 53.5629561,53.9154102 C53.5629561,52.9878867 52.8069715,52.2357227 51.8743596,52.2357227 L9.11251096,52.2357227 L24.4061294,26.7755234 L28.7981689,29.5140859 C29.346625,29.8562383 30.0433399,29.8562383 30.5917961,29.5140859 L36.8333553,25.62225 L46.053261,34.6564492 C46.2366425,34.8361758 46.451432,34.963832 46.6795614,35.0432813 C47.217886,35.2309023 47.8320285,35.1407031 48.2955482,34.7696602 C48.3396206,34.7343867 48.3821732,34.6967617 48.4232061,34.6564492 L53.986625,29.2053594 L72.2688904,59.640625 L4.66457895,59.640625 Z M38.4667346,3.36823828 L52.203636,26.2368477 L47.238318,31.1018945 L38.2524518,22.2971406 C38.2144583,22.2600195 38.1747763,22.22525 38.13425,22.1923281 C38.1207412,22.1814102 38.106557,22.1715 38.0927105,22.160918 C38.0650175,22.1397539 38.0369868,22.1190937 38.0081118,22.0997773 C37.9913947,22.0885234 37.9743399,22.0782773 37.9572851,22.0676953 C37.9300987,22.0508984 37.9029123,22.0347734 37.8748816,22.0196562 C37.8568136,22.0097461 37.8384079,22.0003398 37.8200022,21.9912695 C37.7919715,21.9773281 37.7634342,21.9643945 37.7347281,21.9521328 C37.7163224,21.9442383 37.6979167,21.9361758 37.6793421,21.9289531 C37.6482719,21.9168594 37.6166952,21.9064453 37.5851184,21.8963672 C37.5684013,21.8909922 37.5520219,21.8849453 37.535136,21.8802422 C37.489375,21.8671406 37.4432763,21.8558867 37.3966711,21.8466484 C37.3929561,21.8459766 37.3892412,21.8449688 37.3853575,21.8442969 C37.3368947,21.8350586 37.2880943,21.8283398 37.239125,21.8233008 C37.2225768,21.8216211 37.2058596,21.8211172 37.1891425,21.8199414 C37.1552018,21.8174219 37.1214298,21.8155742 37.0873202,21.8150703 C37.0803969,21.8150703 37.0736425,21.8140625 37.0668882,21.8140625 C37.0591206,21.8140625 37.0513531,21.8155742 37.0437544,21.8155742 C36.9743531,21.8164141 36.9049518,21.8202773 36.8358882,21.8298516 C36.8357193,21.8298516 36.8355504,21.8298516 36.8353816,21.8298516 C36.7661491,21.8394258 36.697761,21.854543 36.6297105,21.8728516 C36.6170461,21.8762109 36.6043816,21.8792344 36.591886,21.8829297 C36.5265373,21.9019102 36.4622018,21.9250898 36.3988794,21.9523008 C36.3867215,21.9575078 36.3749013,21.9632187 36.3629123,21.9687617 C36.2975636,21.9986602 36.2330592,22.031582 36.17075,22.0703828 L29.6951513,26.1081836 L26.1389671,23.8908281 L38.4667346,3.36823828 Z M40.1553311,-19.640625 L53.1892697,-19.640625 L53.1892697,-15.6730352 C53.1892697,-14.7455117 53.9452544,-13.9933477 54.8778662,-13.9933477 L62.6795197,-13.9933477 L60.2661776,-10.6640391 C59.8305197,-10.0632148 59.8421711,-9.24940625 60.2947149,-8.66101172 L62.5611491,-5.714 L49.8086996,-5.714 L49.8086996,-9.68158984 C49.8086996,-10.6091133 49.0527149,-11.3612773 48.1201031,-11.3612773 L40.1553311,-11.3612773 L40.1553311,-19.640625 Z M76.6945329,60.4588008 L40.1553311,-0.370074219 L40.1553311,-8.00190234 L46.4315066,-8.00190234 L46.4315066,-4.0343125 C46.4315066,-3.10678906 47.1874912,-2.354625 48.1201031,-2.354625 L65.9788684,-2.354625 C66.6213794,-2.354625 67.2081667,-2.71726953 67.4926952,-3.29021094 C67.7773925,-3.86315234 67.7103553,-4.54712109 67.3199518,-5.05489063 L63.7389452,-9.71132031 L67.348489,-14.6905859 C67.719136,-15.2020508 67.770807,-15.8769492 67.482057,-16.4381328 C67.1931382,-16.9994844 66.6127675,-17.3525547 65.9788684,-17.3525547 L56.5664627,-17.3525547 L56.5664627,-21.3203125 C56.5664627,-22.2480039 55.8104781,-23 54.8778662,-23 L38.4667346,-23 C37.5341228,-23 36.7781382,-22.2480039 36.7781382,-21.3203125 L36.7781382,-0.370074219 L0.238936404,60.4588008 C-0.0727785088,60.9778242 -0.0800394737,61.6234961 0.219855263,62.1492383 C0.51975,62.6751484 1.08070175,63 1.68859649,63 L75.2450417,63 C75.8529364,63 76.4137193,62.6749805 76.7137829,62.1492383 C77.0135088,61.6234961 77.0062478,60.9778242 76.6945329,60.4588008 Z" id="Fill-1" fill="#1A2939" mask="url(#mask-2)"></path>
                        </g>
                    </g>
                    <g id="goal-(2)">
                        <g id="Group-3">
                            <mask id="mask-4" fill="white">
                                <use xlink:href="#path-3"></use>
                            </mask>
                            <g id="Clip-2"></g>
                            <path d="M4.66457895,82.640625 L7.09463816,78.5950977 L51.8743596,78.5950977 C52.8069715,78.5950977 53.5629561,77.8429336 53.5629561,76.9154102 C53.5629561,75.9878867 52.8069715,75.2357227 51.8743596,75.2357227 L9.11251096,75.2357227 L24.4061294,49.7755234 L28.7981689,52.5140859 C29.346625,52.8562383 30.0433399,52.8562383 30.5917961,52.5140859 L36.8333553,48.62225 L46.053261,57.6564492 C46.2366425,57.8361758 46.451432,57.963832 46.6795614,58.0432813 C47.217886,58.2309023 47.8320285,58.1407031 48.2955482,57.7696602 C48.3396206,57.7343867 48.3821732,57.6967617 48.4232061,57.6564492 L53.986625,52.2053594 L72.2688904,82.640625 L4.66457895,82.640625 Z M38.4667346,26.3682383 L52.203636,49.2368477 L47.238318,54.1018945 L38.2524518,45.2971406 C38.2144583,45.2600195 38.1747763,45.22525 38.13425,45.1923281 C38.1207412,45.1814102 38.106557,45.1715 38.0927105,45.160918 C38.0650175,45.1397539 38.0369868,45.1190937 38.0081118,45.0997773 C37.9913947,45.0885234 37.9743399,45.0782773 37.9572851,45.0676953 C37.9300987,45.0508984 37.9029123,45.0347734 37.8748816,45.0196562 C37.8568136,45.0097461 37.8384079,45.0003398 37.8200022,44.9912695 C37.7919715,44.9773281 37.7634342,44.9643945 37.7347281,44.9521328 C37.7163224,44.9442383 37.6979167,44.9361758 37.6793421,44.9289531 C37.6482719,44.9168594 37.6166952,44.9064453 37.5851184,44.8963672 C37.5684013,44.8909922 37.5520219,44.8849453 37.535136,44.8802422 C37.489375,44.8671406 37.4432763,44.8558867 37.3966711,44.8466484 C37.3929561,44.8459766 37.3892412,44.8449688 37.3853575,44.8442969 C37.3368947,44.8350586 37.2880943,44.8283398 37.239125,44.8233008 C37.2225768,44.8216211 37.2058596,44.8211172 37.1891425,44.8199414 C37.1552018,44.8174219 37.1214298,44.8155742 37.0873202,44.8150703 C37.0803969,44.8150703 37.0736425,44.8140625 37.0668882,44.8140625 C37.0591206,44.8140625 37.0513531,44.8155742 37.0437544,44.8155742 C36.9743531,44.8164141 36.9049518,44.8202773 36.8358882,44.8298516 C36.8357193,44.8298516 36.8355504,44.8298516 36.8353816,44.8298516 C36.7661491,44.8394258 36.697761,44.854543 36.6297105,44.8728516 C36.6170461,44.8762109 36.6043816,44.8792344 36.591886,44.8829297 C36.5265373,44.9019102 36.4622018,44.9250898 36.3988794,44.9523008 C36.3867215,44.9575078 36.3749013,44.9632187 36.3629123,44.9687617 C36.2975636,44.9986602 36.2330592,45.031582 36.17075,45.0703828 L29.6951513,49.1081836 L26.1389671,46.8908281 L38.4667346,26.3682383 Z M40.1553311,3.359375 L53.1892697,3.359375 L53.1892697,7.32696484 C53.1892697,8.25448828 53.9452544,9.00665234 54.8778662,9.00665234 L62.6795197,9.00665234 L60.2661776,12.3359609 C59.8305197,12.9367852 59.8421711,13.7505938 60.2947149,14.3389883 L62.5611491,17.286 L49.8086996,17.286 L49.8086996,13.3184102 C49.8086996,12.3908867 49.0527149,11.6387227 48.1201031,11.6387227 L40.1553311,11.6387227 L40.1553311,3.359375 Z M76.6945329,83.4588008 L40.1553311,22.6299258 L40.1553311,14.9980977 L46.4315066,14.9980977 L46.4315066,18.9656875 C46.4315066,19.8932109 47.1874912,20.645375 48.1201031,20.645375 L65.9788684,20.645375 C66.6213794,20.645375 67.2081667,20.2827305 67.4926952,19.7097891 C67.7773925,19.1368477 67.7103553,18.4528789 67.3199518,17.9451094 L63.7389452,13.2886797 L67.348489,8.30941406 C67.719136,7.79794922 67.770807,7.12305078 67.482057,6.56186719 C67.1931382,6.00051562 66.6127675,5.64744531 65.9788684,5.64744531 L56.5664627,5.64744531 L56.5664627,1.6796875 C56.5664627,0.751996094 55.8104781,0 54.8778662,0 L38.4667346,0 C37.5341228,0 36.7781382,0.751996094 36.7781382,1.6796875 L36.7781382,22.6299258 L0.238936404,83.4588008 C-0.0727785088,83.9778242 -0.0800394737,84.6234961 0.219855263,85.1492383 C0.51975,85.6751484 1.08070175,86 1.68859649,86 L75.2450417,86 C75.8529364,86 76.4137193,85.6749805 76.7137829,85.1492383 C77.0135088,84.6234961 77.0062478,83.9778242 76.6945329,83.4588008 Z" id="Fill-1" fill="#ED2853" mask="url(#mask-4)"></path>
                        </g>
                    </g>
                </g>
            </g>
        </g>
    </g>
</svg>